HIERARCHY
ROOT hip
{
  OFFSET 0 90.174 2.4664
  CHANNELS 6 Xposition Yposition Zposition Zrotation Xrotation Yrotation
  JOINT abdomen
  {
    OFFSET 0 -1.186 -1.5018
    CHANNELS 6 Xposition Yposition Zposition Zrotation Xrotation Yrotation
    JOINT abdomen2
    {
      OFFSET 0 9.964 0.2134
      CHANNELS 6 Xposition Yposition Zposition Zrotation Xrotation Yrotation
      JOINT chest
      {
        OFFSET 0 13.134 -3.2573
        CHANNELS 6 Xposition Yposition Zposition Zrotation Xrotation Yrotation
        JOINT neck
        {
          OFFSET 0 20.686 -1.6905
          CHANNELS 6 Xposition Yposition Zposition Zrotation Xrotation Yrotation
          JOINT head
          {
            OFFSET 0 7.238 -0.1237
            CHANNELS 6 Xposition Yposition Zposition Zrotation Xrotation Yrotation
            End Site
            {
              OFFSET 0 0 0
            }
          }
        }
        JOINT lCollar
        {
          OFFSET 1.7069 20.075 5.0056
          CHANNELS 6 Xposition Yposition Zposition Zrotation Xrotation Yrotation
          JOINT lShldr
          {
            OFFSET 13.6458 -0.047 -4.849
            CHANNELS 6 Xposition Yposition Zposition Zrotation Xrotation Yrotation
            JOINT lForeArm
            {
              OFFSET 28.3255 -0.9759 2.2888
              CHANNELS 6 Xposition Yposition Zposition Zrotation Xrotation Yrotation
              JOINT lHand
              {
                OFFSET 22.1583 -0.53 10.8316
                CHANNELS 6 Xposition Yposition Zposition Zrotation Xrotation Yrotation
                JOINT lThumb1
                {
                  OFFSET 0.786 0.112 2.5817
                  CHANNELS 6 Xposition Yposition Zposition Zrotation Xrotation Yrotation
                  JOINT lThumb2
                  {
                    OFFSET 0.3601 -0.878 4.2331
                    CHANNELS 6 Xposition Yposition Zposition Zrotation Xrotation Yrotation
                    JOINT lThumb2_End
                    {
                      OFFSET 1.8127 -1.216 2.2227
                      CHANNELS 6 Xposition Yposition Zposition Zrotation Xrotation Yrotation
                      End Site
                      {
                        OFFSET 0.0181 -0.0122 0.0222
                      }
                    }
                  }
                }
                JOINT lCarpal1
                {
                  OFFSET 0.9571 1.114 1.7695
                  CHANNELS 6 Xposition Yposition Zposition Zrotation Xrotation Yrotation
                  JOINT lIndex1
                  {
                    OFFSET 4.1246 0.487 4.1451
                    CHANNELS 6 Xposition Yposition Zposition Zrotation Xrotation Yrotation
                    JOINT lIndex2
                    {
                      OFFSET 3.4052 -1.454 2.7682
                      CHANNELS 6 Xposition Yposition Zposition Zrotation Xrotation Yrotation
                      JOINT lIndex2_End
                      {
                        OFFSET 1.4531 -1.795 1.2713
                        CHANNELS 6 Xposition Yposition Zposition Zrotation Xrotation Yrotation
                        End Site
                        {
                          OFFSET 0.0145 -0.0179 0.0127
                        }
                      }
                    }
                  }
                  JOINT lMid1
                  {
                    OFFSET 5.6954 0.21 2.1184
                    CHANNELS 6 Xposition Yposition Zposition Zrotation Xrotation Yrotation
                    JOINT lMid2
                    {
                      OFFSET 3.9766 -1.54 2.3863
                      CHANNELS 6 Xposition Yposition Zposition Zrotation Xrotation Yrotation
                      JOINT lMid2_End
                      {
                        OFFSET 1.4042 -1.926 1.125
                        CHANNELS 6 Xposition Yposition Zposition Zrotation Xrotation Yrotation
                        End Site
                        {
                          OFFSET 0.014 -0.0193 0.0113
                        }
                      }
                    }
                  }
                }
                JOINT lCarpal2
                {
                  OFFSET 2.0956 0.66 -0.3894
                  CHANNELS 6 Xposition Yposition Zposition Zrotation Xrotation Yrotation
                  JOINT lRing1
                  {
                    OFFSET 5.0395 -0.09 2.4971
                    CHANNELS 6 Xposition Yposition Zposition Zrotation Xrotation Yrotation
                    JOINT lRing2
                    {
                      OFFSET 3.7921 -1.552 1.4806
                      CHANNELS 6 Xposition Yposition Zposition Zrotation Xrotation Yrotation
                      JOINT lRing2_End
                      {
                        OFFSET 1.4655 -1.808 0.9609
                        CHANNELS 6 Xposition Yposition Zposition Zrotation Xrotation Yrotation
                        End Site
                        {
                          OFFSET 0.0147 -0.0181 0.0096
                        }
                      }
                    }
                  }
                  JOINT lPinky1
                  {
                    OFFSET 4.9141 -1.269 0.3591
                    CHANNELS 6 Xposition Yposition Zposition Zrotation Xrotation Yrotation
                    JOINT lPinky2
                    {
                      OFFSET 3.1477 -1.685 0.8462
                      CHANNELS 6 Xposition Yposition Zposition Zrotation Xrotation Yrotation
                      JOINT lPinky2_End
                      {
                        OFFSET 0.8055 -1.585 0.7955
                        CHANNELS 6 Xposition Yposition Zposition Zrotation Xrotation Yrotation
                        End Site
                        {
                          OFFSET 0.0081 -0.0158 0.008
                        }
                      }
                    }
                  }
                }
              }
            }
          }
        }
        JOINT rCollar
        {
          OFFSET -1.7069 20.075 5.0056
          CHANNELS 6 Xposition Yposition Zposition Zrotation Xrotation Yrotation
          JOINT rShldr
          {
            OFFSET -13.6458 -0.047 -4.849
            CHANNELS 6 Xposition Yposition Zposition Zrotation Xrotation Yrotation
            JOINT rForeArm
            {
              OFFSET -28.3255 -0.9759 2.2888
              CHANNELS 6 Xposition Yposition Zposition Zrotation Xrotation Yrotation
              JOINT rHand
              {
                OFFSET -22.1583 -0.53 10.8316
                CHANNELS 6 Xposition Yposition Zposition Zrotation Xrotation Yrotation
                JOINT rThumb1
                {
                  OFFSET -0.786 0.112 2.5817
                  CHANNELS 6 Xposition Yposition Zposition Zrotation Xrotation Yrotation
                  JOINT rThumb2
                  {
                    OFFSET -0.3601 -0.878 4.2331
                    CHANNELS 6 Xposition Yposition Zposition Zrotation Xrotation Yrotation
                    JOINT rThumb2_End
                    {
                      OFFSET -1.8127 -1.216 2.2227
                      CHANNELS 6 Xposition Yposition Zposition Zrotation Xrotation Yrotation
                      End Site
                      {
                        OFFSET -0.0181 -0.0122 0.0222
                      }
                    }
                  }
                }
                JOINT rCarpal1
                {
                  OFFSET -0.9571 1.114 1.7695
                  CHANNELS 6 Xposition Yposition Zposition Zrotation Xrotation Yrotation
                  JOINT rIndex1
                  {
                    OFFSET -4.1246 0.487 4.1451
                    CHANNELS 6 Xposition Yposition Zposition Zrotation Xrotation Yrotation
                    JOINT rIndex2
                    {
                      OFFSET -3.4052 -1.454 2.7682
                      CHANNELS 6 Xposition Yposition Zposition Zrotation Xrotation Yrotation
                      JOINT rIndex2_End
                      {
                        OFFSET -1.4531 -1.795 1.2713
                        CHANNELS 6 Xposition Yposition Zposition Zrotation Xrotation Yrotation
                        End Site
                        {
                          OFFSET -0.0145 -0.018 0.0127
                        }
                      }
                    }
                  }
                  JOINT rMid1
                  {
                    OFFSET -5.6954 0.21 2.1184
                    CHANNELS 6 Xposition Yposition Zposition Zrotation Xrotation Yrotation
                    JOINT rMid2
                    {
                      OFFSET -3.9766 -1.54 2.3863
                      CHANNELS 6 Xposition Yposition Zposition Zrotation Xrotation Yrotation
                      JOINT rMid2_End
                      {
                        OFFSET -1.4042 -1.926 1.125
                        CHANNELS 6 Xposition Yposition Zposition Zrotation Xrotation Yrotation
                        End Site
                        {
                          OFFSET -0.014 -0.0193 0.0113
                        }
                      }
                    }
                  }
                }
                JOINT rCarpal2
                {
                  OFFSET -2.0956 0.66 -0.3894
                  CHANNELS 6 Xposition Yposition Zposition Zrotation Xrotation Yrotation
                  JOINT rRing1
                  {
                    OFFSET -5.0395 -0.09 2.4971
                    CHANNELS 6 Xposition Yposition Zposition Zrotation Xrotation Yrotation
                    JOINT rRing2
                    {
                      OFFSET -3.7921 -1.552 1.4806
                      CHANNELS 6 Xposition Yposition Zposition Zrotation Xrotation Yrotation
                      JOINT rRing2_End
                      {
                        OFFSET -1.4655 -1.808 0.9609
                        CHANNELS 6 Xposition Yposition Zposition Zrotation Xrotation Yrotation
                        End Site
                        {
                          OFFSET -0.0147 -0.0181 0.0096
                        }
                      }
                    }
                  }
                  JOINT rPinky1
                  {
                    OFFSET -4.9141 -1.269 0.3592
                    CHANNELS 6 Xposition Yposition Zposition Zrotation Xrotation Yrotation
                    JOINT rPinky2
                    {
                      OFFSET -3.1477 -1.685 0.8462
                      CHANNELS 6 Xposition Yposition Zposition Zrotation Xrotation Yrotation
                      JOINT rPinky2_End
                      {
                        OFFSET -0.8055 -1.585 0.7955
                        CHANNELS 6 Xposition Yposition Zposition Zrotation Xrotation Yrotation
                        End Site
                        {
                          OFFSET -0.0081 -0.0158 0.008
                        }
                      }
                    }
                  }
                }
              }
            }
          }
        }
      }
    }
  }
  JOINT lThigh
  {
    OFFSET 8.367 -8.2066 0.5982
    CHANNELS 6 Xposition Yposition Zposition Zrotation Xrotation Yrotation
    JOINT lShin
    {
      OFFSET 2.1923 -43.463 -0.4932
      CHANNELS 6 Xposition Yposition Zposition Zrotation Xrotation Yrotation
      JOINT lFoot
      {
        OFFSET 0.7333 -45.8593 -2.6451
        CHANNELS 6 Xposition Yposition Zposition Zrotation Xrotation Yrotation
        End Site
        {
          OFFSET 2.6618 -4.2699 12.3931
        }
      }
    }
  }
  JOINT rThigh
  {
    OFFSET -8.367 -8.2066 0.5982
    CHANNELS 6 Xposition Yposition Zposition Zrotation Xrotation Yrotation
    JOINT rShin
    {
      OFFSET -2.1923 -43.463 -0.4931
      CHANNELS 6 Xposition Yposition Zposition Zrotation Xrotation Yrotation
      JOINT rFoot
      {
        OFFSET -0.7333 -45.8593 -2.6451
        CHANNELS 6 Xposition Yposition Zposition Zrotation Xrotation Yrotation
        End Site
        {
          OFFSET -2.6618 -4.2699 12.3931
        }
      }
    }
  }
}
MOTION
Frames:	4
Frame Time:	0.0333333
0 90.174 2.4664 0 0 -0 0 -1.186 -1.5018 0 0 -0 0 9.964 0.2134 0 0 -0 0 13.134 -3.2573 0 0 -0 0 20.686 -1.6905 0 0 -0 0 7.238 -0.1237 0 0 -0 1.7069 20.075 5.0056 0 0 -0 13.6458 -0.047 -4.849 1.66051 0.0835086 5.75766 28.3255 -0.9759 2.2888 -0.0175111 0.895433 15.7816 22.1583 -0.53 10.8316 7.95139e-016 -1.98785e-016 -0 0.786 0.112 2.5817 5.46658e-016 -3.97569e-016 -0 0.3601 -0.878 4.2331 5.96354e-016 0 -0 1.8127 -1.216 2.2227 3.97569e-016 1.98785e-016 9.54166e-015 0.9571 1.114 1.7695 1.49089e-016 -3.97569e-016 -0 4.1246 0.487 4.1451 6.4605e-016 0 3.18055e-015 3.4052 -1.454 2.7682 5.96354e-016 0 3.18055e-015 1.4531 -1.795 1.2713 8.94531e-016 -1.98785e-016 6.36111e-015 5.6954 0.21 2.1184 6.4605e-016 0 3.18055e-015 3.9766 -1.54 2.3863 5.96354e-016 0 3.18055e-015 1.4042 -1.926 1.125 8.94531e-016 -1.98785e-016 6.36111e-015 2.0956 0.66 -0.3894 1.49089e-016 -3.97569e-016 -0 5.0395 -0.09 2.4971 6.4605e-016 0 3.18055e-015 3.7921 -1.552 1.4806 5.96354e-016 0 3.18055e-015 1.4655 -1.808 0.9609 8.94531e-016 -1.98785e-016 6.36111e-015 4.9141 -1.269 0.3591 6.4605e-016 0 3.18055e-015 3.1477 -1.685 0.8462 5.96354e-016 0 3.18055e-015 0.8055 -1.585 0.7955 8.94531e-016 -1.98785e-016 6.36111e-015 -1.7069 20.075 5.0056 0 0 -0 -13.6458 -0.047 -4.849 -1.4496 0.0636048 -5.0245 -28.3255 -0.9759 2.2888 -1.74811 1.20616 -16.8394 -22.1583 -0.53 10.8316 -1.19271e-015 1.98785e-016 -3.18055e-015 -0.786 0.112 2.5817 -3.97569e-016 1.98785e-016 -3.18055e-015 -0.3601 -0.878 4.2331 -2.98177e-016 1.98785e-016 -3.18055e-015 -1.8127 -1.216 2.2227 -2.98177e-016 3.97569e-016 -0 -0.9571 1.114 1.7695 4.96962e-016 0 -6.36111e-015 -4.1246 0.487 4.1451 -9.93923e-017 3.97569e-016 -0 -3.4052 -1.454 2.7682 -8.94531e-016 5.96354e-016 -0 -1.4531 -1.795 1.2713 -3.97569e-016 3.97569e-016 -0 -5.6954 0.21 2.1184 -9.93923e-017 3.97569e-016 -0 -3.9766 -1.54 2.3863 -8.94531e-016 5.96354e-016 -0 -1.4042 -1.926 1.125 -3.97569e-016 3.97569e-016 -0 -2.0956 0.66 -0.3894 4.96962e-016 0 -6.36111e-015 -5.0395 -0.09 2.4971 -9.93923e-017 3.97569e-016 -0 -3.7921 -1.552 1.4806 -8.94531e-016 5.96354e-016 -0 -1.4655 -1.808 0.9609 -3.97569e-016 3.97569e-016 -0 -4.9141 -1.269 0.3592 -9.93923e-017 3.97569e-016 -0 -3.1477 -1.685 0.8462 -8.94531e-016 5.96354e-016 -0 -0.8055 -1.585 0.7955 -3.97569e-016 3.97569e-016 -0 8.367 -8.2066 0.5982 -4.66115 -1.03232 0.120763 2.1923 -43.463 -0.4932 0.00990601 1.55097 0.177175 0.7333 -45.8593 -2.6451 4.65196 -0.54114 -0.255042 -8.367 -8.2066 0.5982 4.66115 -1.03222 -0.120763 -2.1923 -43.463 -0.4931 -0.00990459 1.5509 -0.177176 -0.7333 -45.8593 -2.6451 -4.65196 -0.541171 0.255041 
42.3098 33.7937 36.0155 179.994 51.0033 0.0125389 -7.10543e-015 -1.186 -1.5018 -0.169939 -1.41779 0.139932 0 9.964 0.2134 -0.336565 -2.83599 0.275781 -7.10543e-015 13.134 -3.2573 -0.336565 -2.836 0.275781 0 20.686 -1.6905 1.9756e-005 15.9936 -1.39177e-005 0 7.238 -0.1237 8.56714e-008 10.996 -1.22388e-007 1.7069 20.075 5.0056 6.16074 1.44727 17.8843 13.6458 -0.047 -4.849 -17.467 57.9254 35.9559 28.3255 -0.9759 2.2888 37.2695 44.0451 -59.977 22.1583 -0.53 10.8316 -0.080851 -1.30217 8.31971 0.786 0.112 2.5817 3.35209e-007 -1.62132e-006 -1.75576e-007 0.3601 -0.878 4.2331 2.71505e-006 -1.63727e-006 2.68781e-006 1.8127 -1.216 2.2227 8.10662e-007 1.67604e-007 -1.89629e-007 0.9571 1.114 1.7695 -1.59028e-015 3.18055e-015 3.18055e-015 4.1246 0.487 4.1451 3.35209e-007 -1.62132e-006 -1.75576e-007 3.4052 -1.454 2.7682 2.71505e-006 -1.63727e-006 2.68781e-006 1.4531 -1.795 1.2713 8.10662e-007 1.67604e-007 -1.89629e-007 5.6954 0.21 2.1184 3.35209e-007 -1.62132e-006 -1.75576e-007 3.9766 -1.54 2.3863 2.71505e-006 -1.63727e-006 2.68781e-006 1.4042 -1.926 1.125 8.10662e-007 1.67604e-007 -1.89629e-007 2.0956 0.66 -0.3894 -1.59028e-015 3.18055e-015 3.18055e-015 5.0395 -0.09 2.4971 3.35209e-007 -1.62132e-006 -1.75576e-007 3.7921 -1.552 1.4806 2.71505e-006 -1.63727e-006 2.68781e-006 1.4655 -1.808 0.9609 8.10662e-007 1.67604e-007 -1.89629e-007 4.9141 -1.269 0.3591 3.35209e-007 -1.62132e-006 -1.75576e-007 3.1477 -1.685 0.8462 2.71505e-006 -1.63727e-006 2.68781e-006 0.8055 -1.585 0.7955 8.10662e-007 1.67604e-007 -1.89629e-007 -1.7069 20.075 5.0056 -6.18125 1.45149 -17.9018 -13.6458 -0.047 -4.849 17.7905 57.7974 -35.4992 -28.3255 -0.9759 2.2888 -37.8683 43.0293 59.4449 -22.1583 -0.53 10.8316 0.0691749 -1.07445 -8.34632 -0.786 0.112 2.5817 8.15016e-007 -1.46018e-007 -1.94493e-007 -0.3601 -0.878 4.2331 1.63003e-006 -2.92036e-007 -3.88987e-007 -1.8127 -1.216 2.2227 8.15016e-007 -1.46018e-007 -1.94493e-007 -0.9571 1.114 1.7695 3.18055e-015 0 -0 -4.1246 0.487 4.1451 8.15016e-007 -1.46018e-007 -1.94493e-007 -3.4052 -1.454 2.7682 1.63003e-006 -2.92036e-007 -3.88987e-007 -1.4531 -1.795 1.2713 8.15016e-007 -1.46018e-007 -1.94493e-007 -5.6954 0.21 2.1184 8.15016e-007 -1.46018e-007 -1.94493e-007 -3.9766 -1.54 2.3863 1.63003e-006 -2.92036e-007 -3.88987e-007 -1.4042 -1.926 1.125 8.15016e-007 -1.46018e-007 -1.94493e-007 -2.0956 0.66 -0.3894 3.18055e-015 0 -0 -5.0395 -0.09 2.4971 8.15016e-007 -1.46018e-007 -1.94493e-007 -3.7921 -1.552 1.4806 1.63003e-006 -2.92036e-007 -3.88987e-007 -1.4655 -1.808 0.9609 8.15016e-007 -1.46018e-007 -1.94493e-007 -4.9141 -1.269 0.3592 8.15016e-007 -1.46018e-007 -1.94493e-007 -3.1477 -1.685 0.8462 1.63003e-006 -2.92036e-007 -3.88987e-007 -0.8055 -1.585 0.7955 8.15016e-007 -1.46018e-007 -1.94493e-007 8.367 -8.2066 0.5982 37.9532 31.6569 28.8669 2.1923 -43.463 -0.4932 65.7262 38.002 -64.74 0.7333 -45.8593 -2.6451 -16.9207 19.6612 -10.9009 -8.367 -8.2066 0.5982 -37.4402 31.9872 -28.9362 -2.1923 -43.463 -0.4931 -65.1936 37.6864 64.421 -0.7333 -45.8593 -2.6451 17.2883 19.8384 10.1783 
42.308 33.7952 36.0143 179.994 51.0054 0.0125393 0 -1.186 -1.5018 -0.170279 -1.48408 0.139326 7.10543e-015 9.964 0.2134 -0.337115 -2.9686 0.274376 7.10543e-015 13.134 -3.2573 -0.337115 -2.96859 0.274376 0 20.686 -1.6905 4.89162e-006 15.9934 -3.42762e-006 7.10543e-015 7.238 -0.1237 8.32787e-008 12.2665 -1.80195e-008 1.7069 20.075 5.0056 6.2289 1.54648 18.1715 13.6458 -0.047 -4.849 -17.448 57.9301 35.9329 28.3255 -0.9759 2.2888 37.2695 44.0451 -59.977 22.1583 -0.53 10.8316 -0.00870645 -1.06266 8.15148 0.786 0.112 2.5817 -2.51694e-006 -1.51441e-007 -5.5201e-007 0.3601 -0.878 4.2331 -1.62006e-006 -3.39334e-007 3.80722e-007 1.8127 -1.216 2.2227 -8.58618e-007 -6.91575e-007 3.62085e-006 0.9571 1.114 1.7695 3.18055e-015 -3.18055e-015 -3.18055e-015 4.1246 0.487 4.1451 -2.51694e-006 -1.51441e-007 -5.5201e-007 3.4052 -1.454 2.7682 -1.62006e-006 -3.39334e-007 3.80722e-007 1.4531 -1.795 1.2713 -8.58618e-007 -6.91575e-007 3.62085e-006 5.6954 0.21 2.1184 -2.51694e-006 -1.51441e-007 -5.5201e-007 3.9766 -1.54 2.3863 -1.62006e-006 -3.39334e-007 3.80722e-007 1.4042 -1.926 1.125 -8.58618e-007 -6.91575e-007 3.62085e-006 2.0956 0.66 -0.3894 3.18055e-015 -3.18055e-015 -3.18055e-015 5.0395 -0.09 2.4971 -2.51694e-006 -1.51441e-007 -5.5201e-007 3.7921 -1.552 1.4806 -1.62006e-006 -3.39334e-007 3.80722e-007 1.4655 -1.808 0.9609 -8.58618e-007 -6.91575e-007 3.62085e-006 4.9141 -1.269 0.3591 -2.51694e-006 -1.51441e-007 -5.5201e-007 3.1477 -1.685 0.8462 -1.62006e-006 -3.39334e-007 3.80722e-007 0.8055 -1.585 0.7955 -8.58618e-007 -6.91575e-007 3.62085e-006 -1.7069 20.075 5.0056 -6.24105 1.54282 -18.1732 -13.6458 -0.047 -4.849 17.7905 57.7974 -35.4992 -28.3255 -0.9759 2.2888 -37.8683 43.0293 59.4449 -22.1583 -0.53 10.8316 -0.00206748 -0.832134 -8.18035 -0.786 0.112 2.5817 -2.14722e-006 2.07303e-006 4.36425e-007 -0.3601 -0.878 4.2331 1.59028e-015 0 -0 -1.8127 -1.216 2.2227 3.18055e-015 -3.18055e-015 -6.36111e-015 -0.9571 1.114 1.7695 -3.18055e-015 -3.18055e-015 -0 -4.1246 0.487 4.1451 -2.14722e-006 2.07303e-006 4.36425e-007 -3.4052 -1.454 2.7682 3.18055e-015 -6.36111e-015 -0 -1.4531 -1.795 1.2713 -0 -3.18055e-015 -0 -5.6954 0.21 2.1184 -2.14722e-006 2.07303e-006 4.36425e-007 -3.9766 -1.54 2.3863 3.18055e-015 -6.36111e-015 -0 -1.4042 -1.926 1.125 -0 -3.18055e-015 -0 -2.0956 0.66 -0.3894 -3.18055e-015 -3.18055e-015 -0 -5.0395 -0.09 2.4971 -2.14722e-006 2.07303e-006 4.36425e-007 -3.7921 -1.552 1.4806 3.18055e-015 -6.36111e-015 -0 -1.4655 -1.808 0.9609 -0 -3.18055e-015 -0 -4.9141 -1.269 0.3592 -2.14722e-006 2.07303e-006 4.36425e-007 -3.1477 -1.685 0.8462 3.18055e-015 -6.36111e-015 -0 -0.8055 -1.585 0.7955 -0 -3.18055e-015 -0 8.367 -8.2066 0.5982 38.4616 31.4854 29.1514 2.1923 -43.463 -0.4932 65.7278 38.003 -64.752 0.7333 -45.8593 -2.6451 -16.3053 19.7812 -11.5403 -8.367 -8.2066 0.5982 -38.1525 31.7479 -29.2806 -2.1923 -43.463 -0.4931 -65.194 37.6873 64.4351 -0.7333 -45.8593 -2.6451 16.4246 20.003 11.0705 
42.3063 33.7964 36.0131 179.994 51.0054 0.0125393 0 -1.186 -1.5018 -0.170624 -1.55055 0.138721 7.10543e-015 9.964 0.2134 -0.337676 -3.1015 0.27297 7.10543e-015 13.134 -3.2573 -0.337676 -3.10149 0.27297 7.10543e-015 20.686 -1.6905 1.22118e-005 15.9934 -8.4708e-006 0 7.238 -0.1237 1.63783e-008 13.5395 1.28462e-007 1.7069 20.075 5.0056 6.29658 1.6462 18.4585 13.6458 -0.047 -4.849 -17.429 57.9348 35.9099 28.3255 -0.9759 2.2888 37.2695 44.0451 -59.977 22.1583 -0.53 10.8316 0.0641479 -0.823363 7.98294 0.786 0.112 2.5817 2.98558e-007 -2.14378e-006 3.25204e-006 0.3601 -0.878 4.2331 4.09187e-006 1.38371e-006 -4.38425e-006 1.8127 -1.216 2.2227 -5.1083e-007 -2.31552e-006 3.44316e-006 0.9571 1.114 1.7695 -3.18055e-015 3.18055e-015 6.36111e-015 4.1246 0.487 4.1451 2.98558e-007 -2.14378e-006 3.25204e-006 3.4052 -1.454 2.7682 4.09187e-006 1.38371e-006 -4.38425e-006 1.4531 -1.795 1.2713 -5.1083e-007 -2.31552e-006 3.44316e-006 5.6954 0.21 2.1184 2.98558e-007 -2.14378e-006 3.25204e-006 3.9766 -1.54 2.3863 4.09187e-006 1.38371e-006 -4.38425e-006 1.4042 -1.926 1.125 -5.1083e-007 -2.31552e-006 3.44316e-006 2.0956 0.66 -0.3894 -3.18055e-015 3.18055e-015 6.36111e-015 5.0395 -0.09 2.4971 2.98558e-007 -2.14378e-006 3.25204e-006 3.7921 -1.552 1.4806 4.09187e-006 1.38371e-006 -4.38425e-006 1.4655 -1.808 0.9609 -5.1083e-007 -2.31552e-006 3.44316e-006 4.9141 -1.269 0.3591 2.98558e-007 -2.14378e-006 3.25204e-006 3.1477 -1.685 0.8462 4.09187e-006 1.38371e-006 -4.38425e-006 0.8055 -1.585 0.7955 -5.1083e-007 -2.31552e-006 3.44316e-006 -1.7069 20.075 5.0056 -6.30039 1.63459 -18.4446 -13.6458 -0.047 -4.849 17.7905 57.7974 -35.4992 -28.3255 -0.9759 2.2888 -37.8683 43.0293 59.4449 -22.1583 -0.53 10.8316 -0.0740103 -0.589987 -8.01408 -0.786 0.112 2.5817 -1.59028e-015 6.36111e-015 -3.18055e-015 -0.3601 -0.878 4.2331 8.13849e-007 -1.50092e-007 -1.9604e-007 -1.8127 -1.216 2.2227 3.18055e-015 0 -6.36111e-015 -0.9571 1.114 1.7695 1.59028e-015 6.36111e-015 -3.18055e-015 -4.1246 0.487 4.1451 3.18055e-015 3.18055e-015 -0 -3.4052 -1.454 2.7682 8.13849e-007 -1.50092e-007 -1.9604e-007 -1.4531 -1.795 1.2713 3.18055e-015 0 -6.36111e-015 -5.6954 0.21 2.1184 3.18055e-015 3.18055e-015 -0 -3.9766 -1.54 2.3863 8.13849e-007 -1.50092e-007 -1.9604e-007 -1.4042 -1.926 1.125 3.18055e-015 0 -6.36111e-015 -2.0956 0.66 -0.3894 1.59028e-015 6.36111e-015 -3.18055e-015 -5.0395 -0.09 2.4971 3.18055e-015 3.18055e-015 -0 -3.7921 -1.552 1.4806 8.13849e-007 -1.50092e-007 -1.9604e-007 -1.4655 -1.808 0.9609 3.18055e-015 0 -6.36111e-015 -4.9141 -1.269 0.3592 3.18055e-015 3.18055e-015 -0 -3.1477 -1.685 0.8462 8.13849e-007 -1.50092e-007 -1.9604e-007 -0.8055 -1.585 0.7955 3.18055e-015 0 -6.36111e-015 8.367 -8.2066 0.5982 38.9704 31.316 29.4373 2.1923 -43.463 -0.4932 65.7294 38.0041 -64.7642 0.7333 -45.8593 -2.6451 -15.6877 19.8948 -12.1818 -8.367 -8.2066 0.5982 -38.8655 31.5121 -29.6279 -2.1923 -43.463 -0.4931 -65.1944 37.6883 64.4495 -0.7333 -45.8593 -2.6451 15.5563 20.1549 11.967 
